<svg width="100" height="100" viewBox="0 0 100 100" fill="none" xmlns="http://www.w3.org/2000/svg">
<path d="M75.3333 91.3333C77.5435 91.3333 79.6631 90.4554 81.2259 88.8926C82.7887 87.3297 83.6667 85.2101 83.6667 83V16.3333C83.6667 14.1232 82.7887 12.0036 81.2259 10.4408C79.6631 8.87797 77.5435 8 75.3333 8H50.3333V37.1667L39.9167 30.9167L29.5 37.1667V8H25.3333C23.1232 8 21.0036 8.87797 19.4408 10.4408C17.878 12.0036 17 14.1232 17 16.3333V83C17 85.2101 17.878 87.3297 19.4408 88.8926C21.0036 90.4554 23.1232 91.3333 25.3333 91.3333H75.3333Z" fill="#D2E3C8"/>
</svg>
